<?xml version="1.0" encoding="utf-8"?>
<!-- Generator: Adobe Illustrator 22.0.0, SVG Export Plug-In . SVG Version: 6.00 Build 0)  -->
<svg version="1.1" id="Capa_1" xmlns="http://www.w3.org/2000/svg" xmlns:xlink="http://www.w3.org/1999/xlink" x="0px" y="0px"
	 viewBox="0 0 1280 751.7" style="enable-background:new 0 0 1280 751.7;" xml:space="preserve">
<style type="text/css">
	.st0{fill:#FFFFFF;}
</style>
<g>
	<path class="st0" d="M87.9,575c71.3,0,124.7-8.8,160.4-26.3c35.6-17.6,53.5-52.1,53.5-103.7c0-51.6-18.9-85.6-56.7-102.2
		c-37.8-16.5-98.2-24.7-181.2-24.7H0.3v257H87.9z"/>
	<path class="st0" d="M1280-0.3H494.9c-6.6,70.1-34.3,123.6-83,160.4C392.7,175,379.4,184.3,372,188c-7.5,3.7-20.7,9.9-39.9,18.4
		c69.2,14.9,124.2,46,165.2,93.4c40.9,47.4,61.4,106.1,61.4,176.4c0,77.7-26.6,146.3-79.8,205.9c-26.4,29.6-61.2,52.8-104.3,69.8
		H1280V-0.3z"/>
	<path class="st0" d="M0.3,121.7h35c69.2,0,120.5-7.4,154-22.3c33.5-14.9,50.3-47.1,50.3-96.6c0-1.1,0-2.1-0.1-3.2H0.3V121.7z"/>
</g>
</svg>
