<?xml version="1.0" encoding="utf-8"?>
<!-- Generator: Adobe Illustrator 22.0.0, SVG Export Plug-In . SVG Version: 6.00 Build 0)  -->
<svg version="1.1" id="Capa_1" xmlns="http://www.w3.org/2000/svg" xmlns:xlink="http://www.w3.org/1999/xlink" x="0px" y="0px"
	 viewBox="0 0 1280 759.6" style="enable-background:new 0 0 1280 759.6;" xml:space="preserve">
<style type="text/css">
	.st0{fill:#FFFFFF;}
</style>
<path class="st0" d="M1539.6,2601.4c-2.6,2.3-6.2,4.7-10.6,7.1s-9.9,4.8-16.5,7.3c0.2,1.4,1,2.5,2.3,3.3c1.3,0.8,2.9,1.2,5,1.2
	c2.2,0,4.6-0.3,7.2-1c2.6-0.7,5.1-1.5,7.6-2.5c2.5-1,5-2.1,7.3-3.3s4.5-2.3,6.5-3.4c1.9-1.1,3.5-2,4.8-2.8c0.3-0.2,0.5-0.3,0.8-0.5
	v-273.3H824v433h730v-136.8c-0.7-0.3-1.4-0.7-2-1c-2-1.2-3.7-2.7-5.1-4.5c-0.5-0.6-0.9-1.3-1.3-2c-0.4,0.2-0.8,0.4-1.2,0.7
	c-2.9,1.6-6,3.1-9.2,4.5c-3.2,1.4-6.6,2.5-10.1,3.4c-3.5,0.9-7,1.4-10.4,1.4c-2.9,0-5.5-0.6-7.8-1.7c-2.3-1.1-4.2-2.6-5.8-4.5
	c-1.3-1.6-2.3-3.3-3.1-5.3c-0.2,0.1-0.3,0.3-0.5,0.4c-2.8,2.1-5.6,4-8.4,5.7s-5.6,3-8.4,3.9c-2.8,1-5.5,1.5-8.2,1.5
	c-3.5,0-6.2-0.8-8.3-2.4c-2.1-1.6-3.1-4.1-3.1-7.5c0-2.5,0.4-4.8,1.3-7.1c0.9-2.2,1.9-4.4,3.1-6.4c1.2-2.1,2.6-4.1,4-6
	c1.4-1.9,2.7-3.8,3.7-5.7c0.6-0.8,1-1.6,1.4-2.3c0.3-0.7,0.5-1.5,0.5-2.3c0-0.7-0.2-1.3-0.6-1.8c-0.4-0.5-1-0.7-1.8-0.7
	c-2.9,0-5.5,0.7-8,2.1c-2.4,1.4-4.7,3.2-6.7,5.4c-2,2.2-3.9,4.6-5.7,7.2c-1.8,2.6-3.4,5.1-4.9,7.5c-0.7,1.1-1.4,2.3-2.1,3.7
	c-0.7,1.4-1.4,2.8-2.2,4.3c-0.8,1.5-1.5,2.9-2.4,4.3c-0.8,1.4-1.7,2.7-2.6,3.8c-0.9,1.1-1.9,2-2.9,2.7c-1,0.7-2,1-3.1,1
	c-1.7,0-3-0.5-3.9-1.5c-0.9-1-1.4-2.3-1.4-3.8c0-1.1,0.2-2.3,0.6-3.5c0.4-1.2,1-2.8,1.9-4.6c1.2-2.5,2.5-5.2,4-8.3
	c1.5-3,3-6.1,4.6-9.1c1.5-3,3-5.8,4.3-8.6s2.5-5,3.4-6.9l15.8-31.1c-0.2-0.1-0.4-0.1-0.6-0.2c-0.7-0.3-1.3-0.7-1.8-1.2
	c-0.5-0.5-0.7-1.2-0.7-2.1c0-0.4,0.2-1.1,0.7-1.9s0.9-1.7,1.4-2.6c0.5-0.9,1-1.8,1.4-2.7c0.4-0.9,0.7-1.6,0.7-2.2
	c0-1.7-1.2-2.9-3.5-3.6c-2.3-0.8-6.3-1.1-11.8-1.1c-5.5,0.2-10.5,0.5-14.9,1c-4.4,0.5-8.5,1-12.3,1.8c-3.8,0.7-7.3,1.5-10.5,2.4
	c-3.3,0.9-6.5,1.9-9.6,3c-3.2,1-6.4,2.2-9.6,3.4c-3.2,1.2-6.7,2.4-10.3,3.6c-0.3,0.1-0.7,0.2-1,0.3c-0.3,0.1-0.6,0.1-0.8,0.1
	c-0.8,0-1.5-0.2-2.1-0.5c-0.6-0.3-1.2-0.8-1.6-1.4c-0.5-0.6-0.8-1.2-1.1-2s-0.4-1.5-0.4-2.3c0-1.3,1-2.7,3.1-4.3
	c2-1.6,4.8-3.2,8.4-4.8c3.6-1.6,7.7-3.2,12.6-4.7c4.8-1.5,10-2.9,15.6-4.1c5.6-1.2,11.4-2.1,17.5-2.9c6.1-0.7,12.1-1.1,18.2-1.1
	c5.2,0,9.7,0.4,13.5,1.2c3.8,0.8,6.9,2,9.4,3.4c2.1,1.3,3.8,2.7,5,4.4c0.7-0.2,1.5-0.3,2.2-0.3c2.1,0,3.6,0.4,4.5,1.2s1.2,1.8,1.2,3
	c0,1.1-0.3,2.2-0.8,3.4c-0.5,1.2-1.1,2.3-1.8,3.3c-2.1,3.7-4.2,7.3-6.2,11.1c-2,3.7-3.9,7.5-5.9,11.3c-2,3.8-4,7.5-6,11.3
	c-2,3.7-4.1,7.4-6.3,11.1c1.4-1.3,2.8-2.7,4.3-4.1c1.5-1.4,3.2-2.7,5-3.9c1.8-1.2,3.8-2.1,5.9-2.9c2.1-0.8,4.5-1.1,7.2-1.1
	c1.6,0,3,0.1,4.5,0.4c1.4,0.3,2.7,0.8,3.7,1.4c1.1,0.7,1.9,1.6,2.6,2.7c0.6,1.1,0.9,2.5,0.9,4.2c0,2.2-0.3,4.2-1,6
	c-0.7,1.8-1.5,3.6-2.5,5.2c-1,1.6-2.1,3.2-3.4,4.7c-1.2,1.5-2.4,3-3.5,4.5c-1.1,1.5-2,3.1-2.9,4.8c-0.8,1.7-1.3,3.5-1.5,5.4
	c0,0.1,0,0.2,0,0.3c0,0.1,0,0.2,0,0.3c0,1,0.3,1.6,1,1.8s1.5,0.4,2.5,0.4c1.3,0,2.7-0.3,4.2-0.8c1.5-0.5,3-1.2,4.6-2
	c1.5-0.9,3.1-1.8,4.6-2.9c1.1-0.7,2.1-1.5,3-2.2c0-2.1,0.4-4.3,1.2-6.8c0.8-2.5,2-5,3.6-7.6c1.6-2.5,3.5-5,5.7-7.4
	c2.3-2.4,4.8-4.5,7.6-6.4c2.8-1.9,5.9-3.3,9.3-4.5c3.4-1.1,7-1.7,10.9-1.7c4,0,7.1,1,9.1,2.9c2,1.9,3,4.7,3,8.1c0,2-0.5,4.2-1.6,6.4
	C1544.1,2596.8,1542.2,2599.1,1539.6,2601.4z M1374.8,2629.2c0.1-0.7,0.4-1.4,0.8-2.2c3.7-7.6,7.4-15,11.1-22.1
	c3.7-7.1,7.2-13.7,10.7-19.8c3.4-6.1,6.7-11.7,9.8-16.8c3.1-5,5.9-9.4,8.4-12.9c2.5-3.6,4.7-6.3,6.4-8.3c1.8-1.9,3.1-2.9,3.9-2.9
	c1.7,0,3,0.5,3.8,1.5c0.8,1,1.2,2.1,1.2,3.4c0,1.1-0.3,2.1-0.8,3.2c-1.2,2.5-2.6,5.3-4.1,8.4c-1.5,3.1-3.2,6.5-4.9,10
	c-1.7,3.5-3.5,7.2-5.3,11c-1.9,3.8-3.7,7.5-5.5,11.3c-1.8,3.7-3.6,7.3-5.3,10.8c-1.7,3.5-3.3,6.7-4.8,9.7c-1.5,3-2.8,5.6-4,7.9
	s-2.2,4.1-3,5.4c-0.7,1.5-1.6,2.8-2.6,3.9c-1,1.1-2.1,2-3.3,2.8c-1.2,0.7-2.4,1.3-3.6,1.6c-1.2,0.4-2.4,0.5-3.4,0.5
	c-1.6,0-2.9-0.4-3.9-1.2c-1.1-0.8-1.6-2-1.6-3.5C1374.6,2630.5,1374.7,2629.9,1374.8,2629.2z M1060,2671.6H874v-186h186V2671.6z
	 M1174.6,2607.9c-4.9,7.9-11.9,13.9-20.8,18.2c-8.9,4.2-19.2,6.4-30.9,6.4h-51.6v-104.8h51.6c11.7,0,22,2.1,30.9,6.4
	c8.9,4.2,15.9,10.3,20.8,18.2c4.9,7.9,7.4,17.2,7.4,27.8C1182,2590.8,1179.5,2600.1,1174.6,2607.9z M1230.2,2632.5h-35.3v-104.8
	h35.3V2632.5z M1314.9,2632.5h-34.7l-44.3-104.8h38l25,61.2l25.6-61.2h34.7L1314.9,2632.5z"/>
<path class="st0" d="M1539.6,2601.4c-2.6,2.3-6.2,4.7-10.6,7.1s-9.9,4.8-16.5,7.3c0.2,1.4,1,2.5,2.3,3.3c1.3,0.8,2.9,1.2,5,1.2
	c2.2,0,4.6-0.3,7.2-1c2.6-0.7,5.1-1.5,7.6-2.5c2.5-1,5-2.1,7.3-3.3s4.5-2.3,6.5-3.4c1.9-1.1,3.5-2,4.8-2.8c0.3-0.2,0.5-0.3,0.8-0.5
	v-273.3H824v433h730v-136.8c-0.7-0.3-1.4-0.7-2-1c-2-1.2-3.7-2.7-5.1-4.5c-0.5-0.6-0.9-1.3-1.3-2c-0.4,0.2-0.8,0.4-1.2,0.7
	c-2.9,1.6-6,3.1-9.2,4.5c-3.2,1.4-6.6,2.5-10.1,3.4c-3.5,0.9-7,1.4-10.4,1.4c-2.9,0-5.5-0.6-7.8-1.7c-2.3-1.1-4.2-2.6-5.8-4.5
	c-1.3-1.6-2.3-3.3-3.1-5.3c-0.2,0.1-0.3,0.3-0.5,0.4c-2.8,2.1-5.6,4-8.4,5.7s-5.6,3-8.4,3.9c-2.8,1-5.5,1.5-8.2,1.5
	c-3.5,0-6.2-0.8-8.3-2.4c-2.1-1.6-3.1-4.1-3.1-7.5c0-2.5,0.4-4.8,1.3-7.1c0.9-2.2,1.9-4.4,3.1-6.4c1.2-2.1,2.6-4.1,4-6
	c1.4-1.9,2.7-3.8,3.7-5.7c0.6-0.8,1-1.6,1.4-2.3c0.3-0.7,0.5-1.5,0.5-2.3c0-0.7-0.2-1.3-0.6-1.8c-0.4-0.5-1-0.7-1.8-0.7
	c-2.9,0-5.5,0.7-8,2.1c-2.4,1.4-4.7,3.2-6.7,5.4c-2,2.2-3.9,4.6-5.7,7.2c-1.8,2.6-3.4,5.1-4.9,7.5c-0.7,1.1-1.4,2.3-2.1,3.7
	c-0.7,1.4-1.4,2.8-2.2,4.3c-0.8,1.5-1.5,2.9-2.4,4.3c-0.8,1.4-1.7,2.7-2.6,3.8c-0.9,1.1-1.9,2-2.9,2.7c-1,0.7-2,1-3.1,1
	c-1.7,0-3-0.5-3.9-1.5c-0.9-1-1.4-2.3-1.4-3.8c0-1.1,0.2-2.3,0.6-3.5c0.4-1.2,1-2.8,1.9-4.6c1.2-2.5,2.5-5.2,4-8.3
	c1.5-3,3-6.1,4.6-9.1c1.5-3,3-5.8,4.3-8.6s2.5-5,3.4-6.9l15.8-31.1c-0.2-0.1-0.4-0.1-0.6-0.2c-0.7-0.3-1.3-0.7-1.8-1.2
	c-0.5-0.5-0.7-1.2-0.7-2.1c0-0.4,0.2-1.1,0.7-1.9s0.9-1.7,1.4-2.6c0.5-0.9,1-1.8,1.4-2.7c0.4-0.9,0.7-1.6,0.7-2.2
	c0-1.7-1.2-2.9-3.5-3.6c-2.3-0.8-6.3-1.1-11.8-1.1c-5.5,0.2-10.5,0.5-14.9,1c-4.4,0.5-8.5,1-12.3,1.8c-3.8,0.7-7.3,1.5-10.5,2.4
	c-3.3,0.9-6.5,1.9-9.6,3c-3.2,1-6.4,2.2-9.6,3.4c-3.2,1.2-6.7,2.4-10.3,3.6c-0.3,0.1-0.7,0.2-1,0.3c-0.3,0.1-0.6,0.1-0.8,0.1
	c-0.8,0-1.5-0.2-2.1-0.5c-0.6-0.3-1.2-0.8-1.6-1.4c-0.5-0.6-0.8-1.2-1.1-2s-0.4-1.5-0.4-2.3c0-1.3,1-2.7,3.1-4.3
	c2-1.6,4.8-3.2,8.4-4.8c3.6-1.6,7.7-3.2,12.6-4.7c4.8-1.5,10-2.9,15.6-4.1c5.6-1.2,11.4-2.1,17.5-2.9c6.1-0.7,12.1-1.1,18.2-1.1
	c5.2,0,9.7,0.4,13.5,1.2c3.8,0.8,6.9,2,9.4,3.4c2.1,1.3,3.8,2.7,5,4.4c0.7-0.2,1.5-0.3,2.2-0.3c2.1,0,3.6,0.4,4.5,1.2s1.2,1.8,1.2,3
	c0,1.1-0.3,2.2-0.8,3.4c-0.5,1.2-1.1,2.3-1.8,3.3c-2.1,3.7-4.2,7.3-6.2,11.1c-2,3.7-3.9,7.5-5.9,11.3c-2,3.8-4,7.5-6,11.3
	c-2,3.7-4.1,7.4-6.3,11.1c1.4-1.3,2.8-2.7,4.3-4.1c1.5-1.4,3.2-2.7,5-3.9c1.8-1.2,3.8-2.1,5.9-2.9c2.1-0.8,4.5-1.1,7.2-1.1
	c1.6,0,3,0.1,4.5,0.4c1.4,0.3,2.7,0.8,3.7,1.4c1.1,0.7,1.9,1.6,2.6,2.7c0.6,1.1,0.9,2.5,0.9,4.2c0,2.2-0.3,4.2-1,6
	c-0.7,1.8-1.5,3.6-2.5,5.2c-1,1.6-2.1,3.2-3.4,4.7c-1.2,1.5-2.4,3-3.5,4.5c-1.1,1.5-2,3.1-2.9,4.8c-0.8,1.7-1.3,3.5-1.5,5.4
	c0,0.1,0,0.2,0,0.3c0,0.1,0,0.2,0,0.3c0,1,0.3,1.6,1,1.8s1.5,0.4,2.5,0.4c1.3,0,2.7-0.3,4.2-0.8c1.5-0.5,3-1.2,4.6-2
	c1.5-0.9,3.1-1.8,4.6-2.9c1.1-0.7,2.1-1.5,3-2.2c0-2.1,0.4-4.3,1.2-6.8c0.8-2.5,2-5,3.6-7.6c1.6-2.5,3.5-5,5.7-7.4
	c2.3-2.4,4.8-4.5,7.6-6.4c2.8-1.9,5.9-3.3,9.3-4.5c3.4-1.1,7-1.7,10.9-1.7c4,0,7.1,1,9.1,2.9c2,1.9,3,4.7,3,8.1c0,2-0.5,4.2-1.6,6.4
	C1544.1,2596.8,1542.2,2599.1,1539.6,2601.4z M1374.8,2629.2c0.1-0.7,0.4-1.4,0.8-2.2c3.7-7.6,7.4-15,11.1-22.1
	c3.7-7.1,7.2-13.7,10.7-19.8c3.4-6.1,6.7-11.7,9.8-16.8c3.1-5,5.9-9.4,8.4-12.9c2.5-3.6,4.7-6.3,6.4-8.3c1.8-1.9,3.1-2.9,3.9-2.9
	c1.7,0,3,0.5,3.8,1.5c0.8,1,1.2,2.1,1.2,3.4c0,1.1-0.3,2.1-0.8,3.2c-1.2,2.5-2.6,5.3-4.1,8.4c-1.5,3.1-3.2,6.5-4.9,10
	c-1.7,3.5-3.5,7.2-5.3,11c-1.9,3.8-3.7,7.5-5.5,11.3c-1.8,3.7-3.6,7.3-5.3,10.8c-1.7,3.5-3.3,6.7-4.8,9.7c-1.5,3-2.8,5.6-4,7.9
	s-2.2,4.1-3,5.4c-0.7,1.5-1.6,2.8-2.6,3.9c-1,1.1-2.1,2-3.3,2.8c-1.2,0.7-2.4,1.3-3.6,1.6c-1.2,0.4-2.4,0.5-3.4,0.5
	c-1.6,0-2.9-0.4-3.9-1.2c-1.1-0.8-1.6-2-1.6-3.5C1374.6,2630.5,1374.7,2629.9,1374.8,2629.2z M1060,2671.6H874v-186h186V2671.6z
	 M1174.6,2607.9c-4.9,7.9-11.9,13.9-20.8,18.2c-8.9,4.2-19.2,6.4-30.9,6.4h-51.6v-104.8h51.6c11.7,0,22,2.1,30.9,6.4
	c8.9,4.2,15.9,10.3,20.8,18.2c4.9,7.9,7.4,17.2,7.4,27.8C1182,2590.8,1179.5,2600.1,1174.6,2607.9z M1230.2,2632.5h-35.3v-104.8
	h35.3V2632.5z M1314.9,2632.5h-34.7l-44.3-104.8h38l25,61.2l25.6-61.2h34.7L1314.9,2632.5z"/>
<path class="st0" d="M1254.8,470c-4.6,4.1-10.8,8.2-18.5,12.4c-7.7,4.2-17.4,8.5-29,12.8c0.4,2.5,1.7,4.4,4,5.8
	c2.2,1.4,5.2,2.1,8.8,2.1c3.9,0,8.1-0.6,12.6-1.7c4.5-1.2,8.9-2.6,13.3-4.4c4.4-1.8,8.7-3.7,12.9-5.8c4.2-2.1,8-4.1,11.3-6
	c3.4-1.9,6.2-3.5,8.5-4.9c0.5-0.3,0.9-0.6,1.3-0.8V0.4H0v759.2h1280V519.7c-1.2-0.6-2.4-1.1-3.5-1.8c-3.5-2.1-6.4-4.7-8.9-7.9
	c-0.8-1.1-1.6-2.3-2.2-3.5c-0.7,0.4-1.4,0.8-2.1,1.2c-5.1,2.9-10.5,5.5-16.1,7.9c-5.7,2.4-11.6,4.4-17.7,6
	c-6.2,1.6-12.2,2.4-18.2,2.4c-5.1,0-9.7-1-13.6-2.9c-4-2-7.3-4.6-10.1-7.9c-2.3-2.7-4.1-5.8-5.5-9.3c-0.3,0.2-0.6,0.5-0.9,0.7
	c-4.9,3.8-9.8,7.1-14.7,10c-5,2.9-9.9,5.2-14.8,6.9c-4.9,1.7-9.7,2.6-14.4,2.6c-6.1,0-10.9-1.4-14.6-4.2c-3.7-2.8-5.5-7.2-5.5-13.1
	c0-4.4,0.7-8.5,2.2-12.4c1.5-3.9,3.3-7.6,5.5-11.3c2.2-3.6,4.5-7.1,7-10.5c2.5-3.4,4.7-6.7,6.5-9.9c1-1.5,1.8-2.8,2.4-4
	c0.6-1.2,0.8-2.6,0.8-4c0-1.3-0.3-2.3-1-3.1c-0.7-0.8-1.8-1.2-3.2-1.2c-5,0-9.7,1.2-14,3.7c-4.3,2.5-8.2,5.6-11.8,9.5
	c-3.6,3.8-6.9,8.1-10,12.6c-3.1,4.6-5.9,8.9-8.6,13.1c-1.2,1.9-2.4,4-3.6,6.5c-1.2,2.4-2.5,4.9-3.8,7.5c-1.3,2.6-2.7,5.1-4.2,7.6
	c-1.5,2.5-3,4.8-4.5,6.7c-1.6,2-3.2,3.5-5,4.7c-1.8,1.2-3.6,1.8-5.4,1.8c-3,0-5.3-0.9-6.9-2.6c-1.6-1.7-2.4-4-2.4-6.6
	c0-2,0.3-4,1-6.2c0.7-2.2,1.8-4.8,3.3-8c2.1-4.4,4.4-9.2,7-14.5c2.6-5.3,5.3-10.6,8-15.9c2.7-5.3,5.2-10.3,7.6-15
	c2.4-4.7,4.4-8.8,6-12.1l27.7-54.5c-0.3-0.1-0.7-0.2-1-0.3c-1.2-0.5-2.3-1.2-3.1-2.2c-0.9-0.9-1.3-2.2-1.3-3.7
	c0-0.8,0.4-1.9,1.2-3.3c0.8-1.4,1.6-2.9,2.5-4.5c0.9-1.6,1.7-3.2,2.5-4.7c0.8-1.5,1.2-2.8,1.2-3.8c0-2.9-2.1-5-6.2-6.3
	c-4.1-1.3-11-2-20.6-2c-9.7,0.3-18.4,0.9-26.1,1.7c-7.8,0.8-14.9,1.8-21.5,3.1c-6.6,1.2-12.7,2.7-18.5,4.3
	c-5.7,1.6-11.4,3.4-16.9,5.2c-5.6,1.8-11.2,3.8-16.8,5.9c-5.7,2.1-11.7,4.2-18.1,6.3c-0.6,0.2-1.2,0.3-1.7,0.5
	c-0.6,0.2-1,0.3-1.5,0.3c-1.4,0-2.6-0.3-3.7-0.9c-1.1-0.6-2.1-1.4-2.9-2.4c-0.8-1-1.5-2.2-1.9-3.5c-0.5-1.3-0.7-2.6-0.7-4
	c0-2.2,1.8-4.7,5.4-7.5c3.6-2.8,8.5-5.6,14.7-8.4c6.2-2.8,13.6-5.6,22-8.3c8.5-2.7,17.6-5.1,27.4-7.2c9.8-2.1,20-3.8,30.6-5
	c10.6-1.2,21.2-1.9,31.8-1.9c9.1,0,17,0.7,23.7,2.2c6.7,1.5,12.2,3.5,16.5,6c3.8,2.2,6.7,4.8,8.8,7.7c1.3-0.3,2.6-0.5,3.9-0.5
	c3.8,0,6.4,0.7,7.8,2.1c1.5,1.4,2.2,3.1,2.2,5.2c0,1.9-0.5,3.9-1.4,6c-0.9,2.1-2,4-3.2,5.8c-3.8,6.4-7.4,12.9-10.8,19.4
	c-3.5,6.5-6.9,13.1-10.4,19.7c-3.5,6.6-6.9,13.2-10.4,19.7c-3.5,6.5-7.2,13-11,19.4c2.4-2.3,4.9-4.7,7.6-7.2
	c2.7-2.5,5.6-4.7,8.8-6.8c3.2-2.1,6.6-3.7,10.4-5.1c3.8-1.3,7.9-2,12.6-2c2.7,0,5.3,0.3,7.8,0.8c2.5,0.5,4.7,1.3,6.5,2.5
	c1.9,1.2,3.4,2.7,4.5,4.7c1.1,2,1.7,4.5,1.7,7.4c0,3.8-0.6,7.4-1.7,10.6c-1.2,3.2-2.6,6.2-4.4,9.1c-1.8,2.9-3.8,5.6-5.9,8.2
	c-2.1,2.6-4.2,5.3-6.1,7.9c-1.9,2.7-3.6,5.5-5,8.4c-1.4,2.9-2.3,6.1-2.6,9.5c0,0.2,0,0.3-0.1,0.5c0,0.2-0.1,0.3-0.1,0.5
	c0,1.7,0.6,2.8,1.7,3.2c1.2,0.4,2.6,0.6,4.4,0.6c2.3,0,4.8-0.4,7.4-1.3c2.6-0.9,5.3-2.1,8-3.6c2.7-1.5,5.4-3.2,8.1-5.1
	c1.8-1.3,3.6-2.6,5.3-3.9c0-3.6,0.7-7.6,2.2-11.9c1.5-4.4,3.5-8.8,6.3-13.3c2.7-4.4,6.1-8.8,10.1-13c4-4.2,8.4-8,13.4-11.2
	c5-3.2,10.4-5.9,16.3-7.8c5.9-2,12.3-2.9,19-2.9c7.1,0,12.4,1.7,15.9,5.1c3.5,3.4,5.3,8.2,5.3,14.2c0,3.6-0.9,7.3-2.8,11.3
	C1262.6,462,1259.4,466,1254.8,470z M965.8,518.7c0.2-1.2,0.7-2.4,1.3-3.8c6.5-13.4,13-26.3,19.4-38.7c6.4-12.4,12.7-24,18.7-34.7
	c6-10.8,11.7-20.6,17.1-29.4c5.4-8.8,10.3-16.4,14.7-22.7c4.4-6.3,8.2-11.1,11.3-14.5c3.1-3.4,5.4-5.1,6.9-5.1c3,0,5.2,0.9,6.7,2.6
	c1.5,1.7,2.2,3.7,2.2,6c0,1.9-0.5,3.8-1.4,5.6c-2.1,4.4-4.5,9.3-7.2,14.8c-2.7,5.5-5.5,11.4-8.5,17.6c-3,6.2-6.1,12.6-9.4,19.2
	c-3.2,6.6-6.4,13.2-9.6,19.7c-3.2,6.5-6.3,12.9-9.3,19c-3,6.1-5.9,11.8-8.5,17c-2.6,5.2-5,9.8-7,13.9c-2.1,4.1-3.8,7.2-5.2,9.5
	c-1.3,2.6-2.8,4.8-4.6,6.8c-1.8,2-3.7,3.6-5.8,4.9c-2,1.3-4.1,2.2-6.3,2.9c-2.1,0.6-4.1,1-6,1c-2.7,0-5-0.7-6.9-2.1
	c-1.9-1.4-2.8-3.5-2.8-6.2C965.4,520.9,965.5,519.9,965.8,518.7z M413.8,593H87.7V266.9h326.1V593z M614.7,481.4
	c-8.7,13.8-20.8,24.4-36.5,31.9c-15.7,7.4-33.7,11.2-54.2,11.2h-90.5V340.8h90.5c20.5,0,38.5,3.7,54.2,11.2
	c15.7,7.4,27.8,18.1,36.5,31.9c8.7,13.8,13,30.1,13,48.8C627.7,451.3,623.4,467.6,614.7,481.4z M712.2,524.4h-61.9V340.8h61.9V524.4
	z M860.7,524.4h-60.9l-77.7-183.7h66.7l43.8,107.3l44.9-107.3h60.9L860.7,524.4z"/>
</svg>
