<?xml version="1.0" encoding="utf-8"?>
<!-- Generator: Adobe Illustrator 22.0.0, SVG Export Plug-In . SVG Version: 6.00 Build 0)  -->
<svg version="1.1" id="Capa_1" xmlns="http://www.w3.org/2000/svg" xmlns:xlink="http://www.w3.org/1999/xlink" x="0px" y="0px"
	 viewBox="0 0 1280 751.3" style="enable-background:new 0 0 1280 751.3;" xml:space="preserve">
<style type="text/css">
	.st0{fill:#FFFFFF;}
</style>
<path class="st0" d="M0,751.3h1280V-0.9H0V751.3z M454,549.3C454,549.3,453.9,549.3,454,549.3c-0.1,3.4,0.1,7.7-0.1,12.1
	c-0.2,4.4-3.8,5.2-6.6,3.3c-3.8-2.6-9.6-4.5-8.8-11.3c0.5-3.9,0.4-7.9,0-11.8c-0.8-6.3,4.1-9.1,7.8-11.8c3.3-2.4,7.4-0.1,7.8,5.2
	C454.2,539.4,454,542.5,454,549.3z M1215.1,333.5h39.2v175.7h-39.2V333.5z M1092.9,333.5h39.2v140.8h74.9v34.9h-114.1V333.5z
	 M970.7,333.5h39.2v140.8h74.9v34.9H970.7V333.5z M890.2,333.5l75.9,175.7h-41.7l-16.3-38h-73.7l-16.3,38h-41.7l75.9-175.7H890.2z
	 M644.1,355.6c17.8-17.4,39.4-26.1,64.6-26.1c25.2,0,47.1,8.3,65.7,24.9L754,383.8c-7.9-6.9-15.1-11.6-21.7-14.2
	c-6.6-2.6-13.8-3.9-21.5-3.9c-14.9,0-27.5,5.1-37.7,15.2c-10.2,10.1-15.3,23.5-15.3,40.1c0,16.6,4.9,29.9,14.7,39.8
	c9.8,10,21.5,15,35.1,15c13.6,0,24.9-2.6,33.9-7.8v-48.3h39.5V482c-17.4,19.4-41.6,29.2-72.4,29.2c-25.8,0-47.5-8.5-65-25.6
	c-17.5-17.1-26.3-38.7-26.3-64.7C617.3,394.8,626.2,373,644.1,355.6z M219.4,170c1.2,1.3,2,2.9,0.2,4.2c-1.3,1-2.7,0.1-3.6-1
	c-9.9-11.7-20.1-23.1-28.3-36.4C199.4,146.8,209.1,158.7,219.4,170z M200.4,180c1.7,0,4.4,0.3,4,2.8c-0.3,2.2-2.8,2-4.7,1.9
	c-16-1.6-32.2-1.7-48.1-5.7C167.9,177.2,184.1,180,200.4,180z M141.8,346.3c4.7-4.5,9.7-8.4,16.4-11.3c-4.2-1.7-7.1,0.6-10.3,0.5
	c-4.1-0.1-5.3-1.6-2.7-5.1c6-7.8,12.9-14.5,23.4-14.8c7.1-0.2,6.7-5.7,5.4-8.9c-5.4-12.4-0.6-22.4,6.3-31.9
	c6-8.4,13.2-15.7,22.7-21.2c-1.7-1.5-3.3-2.7-4.6-4.2c-6.1-6.8-3.4-15.9,6.4-19.2c11.5-3.9,23.5-6,35.7-6.1c1.8,0,4.3,0.7,4.9-1.5
	c0.6-2.1-1.9-2.9-3.3-4c-6.3-4.9-12.6-9.7-18.8-14.6c-2.8-2.3-5.7-4.6-7.7-9.8c10.3,2.2,18.8,5.8,27.5,8.7c2.7,0.9,6,4.1,8.2,1.3
	c1.9-2.6-1.5-5.4-3.2-7.8c-5.6-7.9-12.1-15.3-17-23.8c2.8-2.4,4.9-0.6,6.8,0.2c12,4.4,24,9,36,13.7c5.5,2.2,7.6,1.4,6.6-5.2
	c-1.1-7.4,2.3-13.2,8.3-17.9c2.7,3.7-1.1,7.1,1.2,10.3c5-1.6,8.4-5.6,12.6-8.4c6-4,12.3-7,19.4-7.6c10.2-1,12.4,2.5,8,12.2
	c8.5,0.9,16.5-2.1,24.8-1.6c11.2,0.7,14.1,5.3,11.2,16.1c-1.8,6.6-4,13.3-3.1,20.5c0.7,5.3-2.9,6.2-7.3,5.2c-3-0.7-5.6-3.2-11-1.7
	c8.5,2.6,12.4,7.9,15.5,13.9c0.6,1.2,1.3,2.7,0.3,3.9c-1.2,1.5-2.5,0-3.7-0.4c-1.6-0.5-3.1-1-4.7-1.3c-6.5-1.2-7.1-0.4-5,5.8
	c0.9,2.6,1.5,5.4,2.2,8.1c0.5,1.7,0.3,4.2-1.5,3.8c-7.2-1.7-4.8,3.7-5.6,6.8c-0.6,2.2-0.4,5.5-3,5.7c-2.6,0.2-2.2-3.1-2.6-5
	c-0.8-3.5-2.4-6.3-5.9-7.9c-0.8,2.1,0.4,3.4,1.2,4.7c2.1,3.9,6.5,7.6-1.9,10.3c-2.9,0.9-2.5,6.6-3.3,10.2
	c-1.3,6.2-3.5,12.5,3.3,17.6c3.3,2.5,2.1,7.6,3.9,11.4c4.1,8.9,9.9,12.6,19.4,13.2c12.1,0.8,23.2-4.2,35.1-4.1c3.4,0,7-2.3,8.5-5.5
	c1.5-3.1-2.2-4.7-3.9-6.7c-12.6-15.3-17.2-33.3-18.6-52.6c-0.3-4.1-0.8-8.1-1.2-12.3c3,0.3,2.7,3.1,5.6,4.4
	c-10.5-27.5-2.7-50.8,12.5-73.6c16.3-24.3,40.7-29.8,67-33.6c-0.2,4.7-4.9,3.2-5.8,5.9c0.4,0.2,0.8,0.6,1.1,0.5
	c21.2-7.4,37.1,3.7,52.4,15.5c8.5,6.5,15.5,14.7,22.8,24.9c-11.9-2.8-21.5-8-32.2-8.5c-0.2,0.6-0.5,1.2-0.7,1.8c6.8,3,13.5,6,20.3,9
	c11.6,5.1,22.8,10.7,29.5,22.4c8.8,15.6,13.1,32.4,12.7,50.3c-0.2,7-0.8,14-1.7,20.9c-0.5,3.8-1.8,7.6-6.2,11.1
	c-1.3-8.7-3.6-16-7.9-22.8c-13.4-21.3-33.9-30-58.2-24c-2,0.5-4.8,0.9-4.1,3.6c0.6,2.3,3.2,1.3,4.9,1.1c4.9-0.5,9.6-1.1,14.6-0.8
	c23.9,1.5,32.2,20.2,42.1,37.3c0.8,1.3,1.7,3.6,0.1,4.5c-2.4,1.3-3.3-1.3-3.8-2.8c-4.1-11.7-16.2-16-23.2-25.1
	c0.1,0.6,0,1.3,0.2,1.9c0.6,1.9,3.4,3.4,1.9,5.5c-1.3,1.8-3.9,0.7-5.9,0.6c-12.4-0.8-24.5,0.4-38.3,4.2c8.1,3.2,14.6,0.9,20.5-0.1
	c11.3-2,20.7,1.6,29.9,6.9c2.2,1.3,6.4,2.4,4.9,5.6c-1.4,3.2-5.4,4.5-9,3.8c-3.9-0.7-7.6-2.2-11.4-3.3c-11.5-3-23-5.7-35.3-4.8
	c28.7,11.2,52.6,26.4,55.7,61.4c-3.6-0.1-3.7-2.1-4.4-3.5c-6.8-14.5-20.3-22.2-32.4-31.2c-1-0.8-2.6-1.9-3.7-0.4
	c-1,1.3,0.2,2.6,1.1,3.7c6,6.6,12,13.1,17.9,19.7c5,5.6,8.3,12,11.4,20.5c-7.2-3.3-12.9-5.8-16.5-11.3c-5.4-8.3-12.9-14.8-20-21.5
	c-2.8-2.7-6.2-4.1-10.9-3.2c6.6,11.8,15.1,22.6,14.4,38.3c-3.9-3.7-4.2-8.1-6.1-11.5c-1.4-2.4-2.3-5.1-3.9-7.5
	c-1.2-1.9-1.7-5.9-5-4.1c-2.4,1.3-0.8,4.2,0.2,6.3c0.6,1.2,1.1,2.4,2.2,4.8c-6-2-9.7-5.1-12.8-9.1c-3-3.9-5.9-7.8-9.1-11.6
	c-1.3-1.5-2.8-4-5-3c-2.5,1.1,0.5,3.8-0.9,6c-4,0.1-6.2-4.5-10.9-4.7c1.9,5.6,6.8,7.3,10.8,10c1.3,0.9,3.3,1.8,2.6,3.7
	c-0.8,2-3-0.1-5.5,1.4c12.4,3.2,17.2,13.2,22.9,22.3c2.1,3.3,5,7.1,2.4,11.6c-0.4,0.7-0.4,1.2,0.3,1.7c7.1,5.1,0.8,8-1.9,11.4
	c-1.8,2.1-6.6,2.9-1.3,6.8c1.8,1.4-0.6,4.4-2.1,6c-2.3,2.6-2,4.7-0.2,7.5c24.5,39.4,3.4,95.6-52.2,103c-5.2,0.7-10.3-0.2-15.3-1.1
	c-4.8-0.9-9.5-2.1-14.4-3.2c-0.6,1.3,4.8,3.5-0.3,4.3c-2.3,0.4-4.7,0.3-7,0.3c-33.6,0-67.2-2.2-100.9,1.2c2.3,0,4.6,0,7,0
	c48.6,0,97.2-0.1,145.7-0.1c12,0,13.7,1.6,13.7,13.7c0,36.2,0,72.4-0.1,108.6c0,9.6-0.3,9.9-9.8,9.9c-68.4,0-136.9-0.1-205.3-0.1
	c-9.1,0-9.4-0.3-9.4-9.5c0-36.9-0.1-73.8-0.1-110.7c0-10.9,1.1-12,12-12c7.7,0,15.4,0,23.1-0.1c6.4-0.1,13.3,1.9,17.5-5.7
	c-1.4-1.2-3.2-0.2-4.8,0.2c-30.1,7.5-70.2-6.8-81.3-45.6c-2.2-7.7-3.6-15.6-2.2-23.5c1-5.8-0.3-10.4-3.7-15
	c-6.1-8.2-9.6-17.6-10.5-27.8c-0.3-3.7-1.4-4.1-4.2-2.4c-1.7,1.1-3.6,3.2-5.6,1.5c-2.2-1.8-0.4-4.3,0.2-6.5
	c1.8-6.9,6.7-12.2,10.5-20.2c-6.1,3.1-10.7,5.6-15.4,7.7c-3.5,1.5-7.1,2.7-9.8-1.7C136,351.3,139,349,141.8,346.3z M124.5,523.7
	c0-9.5,0.9-10.2,10.1-8.4c18.3,3.6,36.7,7,54.9,10.8c6.2,1.3,8.3-0.9,7.8-6.6c-0.5-5.5,1.4-8,7.5-8c6.4,0,7.2,3.5,7.1,8.6
	c-0.1,11.9,0,25.8,0,36c0,0,0,0,0,0c0,13.6-0.2,24,0.1,36.1c0.1,5.7-2.5,6.9-7.7,6.9c-5,0-7.8-1-8-6.8c-0.5-13.6-0.7-13.6-13.9-9.9
	c-16.6,4.7-33.2,9.5-49.8,14.1c-7.3,2-7.9,1.5-8-6.3C124.5,568.1,124.5,545.9,124.5,523.7z"/>
</svg>
