<?xml version="1.0" encoding="utf-8"?>
<!-- Generator: Adobe Illustrator 22.0.0, SVG Export Plug-In . SVG Version: 6.00 Build 0)  -->
<svg version="1.1" id="Capa_1" xmlns="http://www.w3.org/2000/svg" xmlns:xlink="http://www.w3.org/1999/xlink" x="0px" y="0px"
	 viewBox="0 0 1265.1 743" style="enable-background:new 0 0 1265.1 743;" xml:space="preserve">
<style type="text/css">
	.st0{fill:#FFFFFF;}
</style>
<g>
	<path class="st0" d="M1086.7,336.2c0-2.6-0.1-5.2-0.2-7.8c-54.2,9.1-95.6,57.2-95.6,115.4c0,13.9,2.5,27.2,6.8,39.5
		C1050.4,456.4,1086.7,400.7,1086.7,336.2z"/>
	<path class="st0" d="M1106,462.2c10.3,0,18.6-8.5,18.6-19.1c0-10.6-8.4-19.1-18.6-19.1s-18.6,8.5-18.6,19.1
		C1087.4,453.7,1095.7,462.2,1106,462.2z"/>
	<path class="st0" d="M1105.6,212.7c-120.4,0-218.3,100.5-218.3,224c0,123.5,97.9,224,218.3,224c31.8,0,62.4-6.8,91-20.4L1252,743
		h13.1v-20.9l-49.6-91.9c6.1-3.7,12.1-7.7,18-12.1l31.6,37.2V603l-6.1-7.1c2.1-2.1,4.1-4.2,6.1-6.4V284
		C1225.2,240.1,1168.4,212.7,1105.6,212.7z M1104,581c-74.1,0-134.3-61.7-134.3-137.8c0-76.2,60.1-137.8,134.3-137.8
		c74.1,0,134.3,61.7,134.3,137.8C1238.3,519.3,1178.2,581,1104,581z"/>
	<path class="st0" d="M1118.9,327.7c-0.1,2.8-0.2,5.6-0.2,8.5c0,66,38,122.9,92.8,149c4.7-12.8,7.4-26.8,7.4-41.3
		C1218.9,384,1175.3,334.8,1118.9,327.7z"/>
	<path class="st0" d="M1014.5,515c20.9,27.8,53.6,45.9,90.5,45.9c38.5,0,72.4-19.6,93.1-49.6c-25.5-17.6-56.2-27.9-89.3-27.9
		C1073.5,483.4,1040.9,495.1,1014.5,515z"/>
	<path class="st0" d="M704.1,202.8l6.5,0.4c13.7,0.9,27.4,3.7,40.9,8.4l-32.2,392.7c-6.1,0.7-12.2,1.1-18.1,1.1
		c-38.3,0-74.5-13.9-105-40.3L632.6,219c12.2-6,25.2-10.4,38.6-13l4.3-0.9l0.5-4.5C684.8,125.3,711.7,56.3,752-2H-2.7v745h845.5
		c-43.4-39.2-78.8-88.4-102.6-145.3l32.4-383.8C846.4,97.9,970.8,28.8,1105.6,28.8c55.8,0,110,12,159.5,34.3V-2H788
		c-43.2,56-72.7,123.7-82.9,198.2L704.1,202.8z M526.1,404.1c0-68.7,30.5-132.4,80.4-169.3l-32.4,307.7
		C543.5,505.3,526.1,455.6,526.1,404.1z"/>
</g>
</svg>
